<svg width="25" height="25" viewBox="0 0 25 25" fill="none" xmlns="http://www.w3.org/2000/svg">

<path d="M12.3562 21.9088C9.8562 21.9088 7.7312 21.0338 5.9812 19.2838C4.2312 17.5338 3.3562 15.4088 3.3562 12.9088C3.3562 10.4088 4.2312 8.28378 5.9812 6.53378C7.7312 4.78378 9.8562 3.90878 12.3562 3.90878C12.5895 3.90878 12.8189 3.91711 13.0442 3.93378C13.2689 3.95044 13.4895 3.97544 13.7062 4.00878C13.0229 4.49211 12.4772 5.12111 12.0692 5.89578C11.6605 6.67111 11.4562 7.50878 11.4562 8.40878C11.4562 9.90878 11.9812 11.1838 13.0312 12.2338C14.0812 13.2838 15.3562 13.8088 16.8562 13.8088C17.7729 13.8088 18.6145 13.6044 19.3812 13.1958C20.1479 12.7878 20.7729 12.2421 21.2562 11.5588C21.2895 11.7754 21.3145 11.9961 21.3312 12.2208C21.3479 12.4461 21.3562 12.6754 21.3562 12.9088C21.3562 15.4088 20.4812 17.5338 18.7312 19.2838C16.9812 21.0338 14.8562 21.9088 12.3562 21.9088ZM12.3562 19.9088C13.8229 19.9088 15.1395 19.5048 16.3062 18.6968C17.4729 17.8881 18.3229 16.8338 18.8562 15.5338C18.5229 15.6171 18.1895 15.6838 17.8562 15.7338C17.5229 15.7838 17.1895 15.8088 16.8562 15.8088C14.8062 15.8088 13.0602 15.0881 11.6182 13.6468C10.1769 12.2048 9.4562 10.4588 9.4562 8.40878C9.4562 8.07544 9.4812 7.74211 9.5312 7.40878C9.5812 7.07544 9.64787 6.74211 9.7312 6.40878C8.4312 6.94211 7.3772 7.79211 6.5692 8.95878C5.76053 10.1254 5.3562 11.4421 5.3562 12.9088C5.3562 14.8421 6.03953 16.4921 7.4062 17.8588C8.77287 19.2254 10.4229 19.9088 12.3562 19.9088Z"/>

</svg>
