<svg width="24" height="24" viewBox="0 0 24 24" fill="none" xmlns="http://www.w3.org/2000/svg">
<mask id="mask0_3_43" style="mask-type:alpha" maskUnits="userSpaceOnUse" x="0" y="0" width="24" height="25">
<rect y="0.5" width="24" height="24" fill="#C4C4C4"/>
</mask>
<g mask="url(#mask0_3_43)">
<path d="M2.575 20.225V17.075H4.85V11C4.85 9.38333 5.31267 7.93733 6.238 6.662C7.16267 5.38733 8.39167 4.55833 9.925 4.175V3.625C9.925 3.04167 10.125 2.55 10.525 2.15C10.925 1.75 11.4167 1.55 12 1.55C12.5833 1.55 13.075 1.75 13.475 2.15C13.875 2.55 14.075 3.04167 14.075 3.625V4.175C15.625 4.55833 16.8583 5.38733 17.775 6.662C18.6917 7.93733 19.15 9.38333 19.15 11V17.075H21.45V20.225H2.575ZM12.025 23.35C11.3917 23.35 10.85 23.1293 10.4 22.688C9.95 22.246 9.725 21.7083 9.725 21.075H14.3C14.3 21.7083 14.0793 22.246 13.638 22.688C13.196 23.1293 12.6583 23.35 12.025 23.35ZM8 17.075H16V11C16 9.9 15.6083 8.95833 14.825 8.175C14.0417 7.39167 13.1 7 12 7C10.9 7 9.95833 7.39167 9.175 8.175C8.39167 8.95833 8 9.9 8 11V17.075Z" fill="#1C1B1F"/>
</g>
</svg>
